<?xml version="1.0" encoding="UTF-8" standalone="no"?>
<!-- Created with Inkscape (http://www.inkscape.org/) -->

<svg
   width="512"
   height="512"
   viewBox="0 0 135.46666 135.46667"
   version="1.1"
   id="svg1"
   xml:space="preserve"
   inkscape:version="1.4.3 (0d15f75042, 2025-12-25)"
   sodipodi:docname="qrcode.svg"
   xmlns:inkscape="http://www.inkscape.org/namespaces/inkscape"
   xmlns:sodipodi="http://sodipodi.sourceforge.net/DTD/sodipodi-0.dtd"
   xmlns="http://www.w3.org/2000/svg"
   xmlns:svg="http://www.w3.org/2000/svg"><sodipodi:namedview
     id="namedview1"
     pagecolor="#ffffff"
     bordercolor="#999999"
     borderopacity="1"
     inkscape:showpageshadow="0"
     inkscape:pageopacity="0"
     inkscape:pagecheckerboard="0"
     inkscape:deskcolor="#d1d1d1"
     inkscape:document-units="mm"
     inkscape:zoom="0.56689919"
     inkscape:cx="420.70972"
     inkscape:cy="171.10626"
     inkscape:window-width="1077"
     inkscape:window-height="981"
     inkscape:window-x="26"
     inkscape:window-y="23"
     inkscape:window-maximized="0"
     inkscape:current-layer="layer1"
     inkscape:export-bgcolor="#ffffffff" /><defs
     id="defs1" /><rect
     style="fill:#ffffff;fill-opacity:1;stroke:none;stroke-width:3.80001;stroke-linecap:square;stroke-miterlimit:0;paint-order:markers fill stroke"
     id="rect1"
     width="135.46666"
     height="135.46666"
     x="3.5603841e-06"
     y="3.5603841e-06"
     rx="10.787116"
     ry="10.787116" /><g
     inkscape:label="Layer 1"
     inkscape:groupmode="layer"
     id="layer1"><path
       style="fill:#000000;stroke-width:0.999998"
       d="M 4.8169721,115.49528 V 100.3409 h 15.1544129 15.15441 v 15.15438 15.15442 H 19.971385 4.8169721 Z m 25.9789919,0 V 104.67071 H 19.971385 9.1468021 v 10.82457 10.82461 H 19.971385 30.795964 Z m -17.319327,0 v -6.49475 h 6.494748 6.494748 v 6.49475 6.49475 h -6.494748 -6.494748 z m 25.978991,8.65968 v -6.49475 h 2.164914 2.164917 v -2.16493 -2.16489 h -2.164917 -2.164914 v -8.65968 -8.659681 H 35.125795 30.795964 V 93.846147 91.68122 h 10.824578 10.824582 v -2.164933 -2.164886 h -4.329836 -4.329829 v -2.164933 -2.164925 h 2.164917 2.164912 v -2.164886 -2.164933 h 2.164918 2.164918 v 4.329819 4.329858 h 2.164913 2.164917 v 4.329819 4.329809 h 2.164917 2.164913 v 2.164938 2.164933 h 2.164919 2.164917 v -2.164933 -2.164938 h 2.16491 2.164918 v 2.164938 2.164933 H 67.59953 65.43462 v 2.16489 2.16492 h 2.16491 2.164918 v 2.16494 2.16488 H 67.59953 65.43462 v 2.16494 2.16492 h 2.16491 2.164918 v 4.32982 4.32982 H 67.59953 65.43462 v -2.16489 -2.16493 h -2.164917 -2.164919 v 2.16493 2.16489 h 2.164919 2.164917 v 4.32986 4.32981 h -6.494749 -6.494747 v -2.16492 -2.16489 h -2.164918 -2.164918 v -2.16493 -2.16493 h 4.329836 4.32983 v -6.49475 -6.49475 h -2.164917 -2.164913 v -2.16488 -2.16494 h -2.164918 -2.164918 v -2.16492 -2.16489 h 2.164918 2.164918 v 2.16489 2.16492 h 2.164913 2.164917 v 2.16494 2.16488 h 2.164917 2.164913 v -4.32982 -4.32981 h -2.164913 -2.164917 v -2.164933 -2.164938 h -4.32983 -4.329836 v 2.164938 2.164933 h -2.164912 -2.164917 v 2.16489 2.16492 h 2.164917 2.164912 v 4.32982 4.32986 h 2.164918 2.164918 v 2.16489 2.16493 h -4.329836 -4.329829 v 6.49475 6.49474 h -2.164917 -2.164914 z m 30.30882,4.32982 v -2.16489 h 2.164917 2.16491 v -2.16493 -2.16493 h 4.329836 4.329825 v -2.16489 -2.16493 h 2.164918 2.164917 v -2.16493 -2.16489 h 2.164918 2.16491 v -4.32986 -4.32982 h -2.16491 -2.164918 v -4.32981 -4.329871 h -4.329835 -4.329825 v 2.164938 2.164933 h 2.16491 2.164915 v 6.49475 6.49474 h -6.494743 -6.494745 v -2.16492 -2.16494 h 2.164917 2.16491 v -2.16488 -2.16494 h 2.164918 2.164918 v -2.16492 -2.16489 h -2.164918 -2.164918 v -2.164933 -2.164938 h 2.164918 2.164918 V 93.846147 91.68122 H 69.764448 61.104784 V 87.351401 83.021543 H 58.939871 56.774954 V 78.691724 74.361905 H 54.610037 52.445124 V 72.196979 70.032046 H 48.115288 43.785459 V 67.86716 65.702235 h -2.164917 -2.164914 v 2.164925 2.164886 h 2.164914 2.164917 v 4.329859 4.329819 h -2.164917 -2.164914 v 4.329819 4.329858 h -6.494747 -6.494748 v -4.329858 -4.329819 h 2.164913 2.164918 v 2.164933 2.164886 h 2.164917 2.164914 v -2.164886 -2.164933 h 2.164916 2.164917 V 76.526798 74.361905 H 37.290711 35.125795 V 72.196979 70.032046 H 32.960881 30.795964 V 67.86716 65.702235 h 2.164917 2.164914 v -2.164933 -2.164886 h -4.329831 -4.329831 v 8.65963 8.659678 h -2.164917 -2.164917 v 2.164933 2.164886 h -2.164914 -2.164916 v -4.329819 -4.329819 h 2.164916 2.164914 V 72.196979 70.032046 H 19.971385 17.806469 V 67.86716 65.702235 h 2.164916 2.164914 v -4.329819 -4.329859 h 2.164917 2.164917 v -2.164893 -2.164926 h 2.164913 2.164918 v 2.164926 2.164893 h 2.164917 2.164914 v -2.164893 -2.164926 h 2.164916 2.164917 v 4.329819 4.329859 h 4.329831 4.329829 v -2.164933 -2.164926 h -2.164912 -2.164917 v -2.164893 -2.164926 h 2.164917 2.164912 v -2.164934 -2.164885 h -2.164912 -2.164917 v 2.164885 2.164934 h -2.164917 -2.164914 v -2.164934 -2.164885 h -2.164917 -2.164916 v -2.164925 -2.164933 h -4.329831 -4.329831 v 4.329858 4.329819 h -2.164917 -2.164917 v 2.164926 2.164893 h -2.164914 -2.164916 v -6.494753 -6.494743 h 2.164916 2.164914 v -2.164887 -2.164933 h 8.659665 8.659664 V 35.39343 31.063571 h 2.164914 2.164917 v 6.494745 6.494745 h 2.164917 2.164912 v 2.164933 2.164925 h 2.164918 2.164918 v 10.824564 10.824563 h 6.494747 6.494749 V 67.86716 65.702235 h 2.16491 2.164918 v 2.164925 2.164886 h 2.164917 2.16491 v 2.164933 2.164926 h 2.164918 2.164918 v -2.164926 -2.164933 h 4.329825 4.329835 v 2.164933 2.164926 h -2.164917 -2.164918 v 4.329819 4.329819 h 2.164918 2.164917 v 2.164925 2.164933 h -2.164917 -2.164918 v 2.164886 2.164933 h 4.329835 4.329828 v -2.164933 -2.164886 h 2.164919 2.164917 v 2.164886 2.164933 h 6.494755 6.49474 v -2.164933 -2.164886 h -6.49474 -6.494755 v -2.164933 -2.164925 h -2.164917 -2.164919 v -2.164886 -2.164933 h 2.164919 2.164917 v -2.164926 -2.164893 h 4.329835 4.32983 v 4.329819 4.329819 h 4.32983 4.32983 v 2.164925 2.164933 h 2.16493 2.1649 v 2.164886 2.164933 h -2.1649 -2.16493 v 4.329809 4.329871 h 2.16493 2.1649 v 4.32981 4.32982 h -2.1649 -2.16493 v 4.32986 4.32982 h 2.16493 2.1649 v -2.16493 -2.16489 h 2.16493 2.1649 v 2.16489 2.16493 h -2.1649 -2.16493 v 2.16493 2.16489 h -6.49474 -6.49475 v 2.16493 2.16493 h 4.32983 4.32983 v 2.16489 2.16492 h -6.49474 -6.49475 v -4.32981 -4.32986 h 2.16492 2.16491 v -4.32982 -4.32982 h -4.32983 -4.329835 v 8.65964 8.65967 h -4.329836 -4.329828 v -2.16492 -2.16489 h 2.164918 2.16491 v -4.32986 -4.32982 h -2.16491 -2.164918 v 4.32982 4.32986 h -2.164917 -2.164918 v 2.16489 2.16492 h -6.494743 -6.494745 z m 38.968482,-25.97899 v -6.494761 h -6.49474 -6.494755 v 6.494761 6.49474 h 6.494755 6.49474 z m -8.65966,0 v -2.16489 h 2.16492 2.16491 v 2.16489 2.16492 h -2.16491 -2.16492 z M 74.094275,83.021543 v -4.329819 h -2.16491 -2.164917 V 76.526798 74.361905 H 67.59953 65.43462 v 2.164893 2.164926 h -2.164917 -2.164919 v 2.164933 2.164886 h 2.164919 2.164917 v 2.164925 2.164933 h 4.329828 4.329827 z m 47.628145,43.298347 v -4.32986 h 2.16493 2.16491 v -6.49475 -6.49475 h 2.16491 2.16492 v 6.49475 6.49475 h -2.16492 -2.16491 v 2.16493 2.16493 h 2.16491 2.16492 v 2.16489 2.16492 h -4.32983 -4.32984 z m 0,-23.8141 v -2.16489 h -2.1649 -2.16493 v -2.164933 -2.164938 h 6.49476 6.49474 v 4.329871 4.32981 h -4.32983 -4.32984 z M 4.8169721,93.846147 V 91.68122 h 2.164917 2.164913 v -2.164933 -2.164886 h -2.164913 -2.164917 v -2.164933 -2.164925 h 2.164917 2.164913 v -2.164886 -2.164933 h -2.164913 -2.164917 v -2.164926 -2.164893 h 2.164917 2.164913 v -2.164926 -2.164933 h 2.1649179 2.164917 v 2.164933 2.164926 H 11.31172 9.1468021 v 2.164893 2.164926 h 2.1649179 2.164917 v 2.164933 2.164886 H 11.31172 9.1468021 v 2.164925 2.164933 h 6.4947489 6.494748 v 2.164886 2.164933 h 2.164917 2.164917 v 2.164927 2.164882 h -4.329834 -4.32983 V 93.846147 91.68122 H 13.476637 9.1468021 v 2.164927 2.164882 H 6.9818891 4.8169721 Z M 121.72242,87.351401 v -4.329858 h 2.16493 2.16491 v -2.164886 -2.164933 h -2.16491 -2.16493 v -6.494745 -6.494744 h 2.16493 2.16491 v -2.164933 -2.164886 h -2.16491 -2.16493 v -4.329859 -4.329819 h -2.1649 -2.16493 v -2.164934 -2.164885 h -2.1649 -2.16493 v 2.164885 2.164934 h -2.16491 -2.16492 v 2.164926 2.164893 h -2.16491 -2.16492 v 4.329859 4.329819 h 4.32983 4.32983 v -4.329819 -4.329859 h 2.16493 2.1649 V 67.86716 78.691724 h 2.16493 2.1649 v 2.164933 2.164886 h -4.32983 -4.32983 v -4.329819 -4.329819 h -2.16491 -2.16492 v -2.164926 -2.164933 h -6.49474 -6.494755 V 67.86716 65.702235 h -2.164917 -2.164919 v -4.329819 -4.329859 h -2.16491 -2.164918 v -2.164893 -2.164926 h -2.164917 -2.164918 v 4.329819 4.329859 h 2.164918 2.164917 v 2.164886 2.164933 h -6.49475 -6.494746 v -2.164933 -2.164886 h -2.16491 -2.164917 v -2.164933 -2.164926 h 2.164917 2.16491 v -6.494753 -6.494743 h -2.16491 -2.164917 V 41.888174 39.723241 H 67.59953 65.43462 v 4.32982 4.329858 h -2.164917 -2.164919 v 2.164885 2.164934 h 2.164919 2.164917 v 4.329819 4.329859 h -2.164917 -2.164919 v 2.164886 2.164933 h -2.164913 -2.164917 v -2.164933 -2.164886 h 2.164917 2.164913 v -4.329859 -4.329819 h -2.164913 -2.164917 v -2.164934 -2.164885 h 2.164917 2.164913 v -2.164925 -2.164933 h -4.32983 -4.32983 v -2.164887 -2.164933 h 2.164913 2.164917 V 35.39343 31.063571 h -2.164917 -2.164913 v 2.164926 2.164933 h -2.164918 -2.164918 v -4.329859 -4.329819 h -2.164912 -2.164917 v -4.329819 -4.329855 h -2.164917 -2.164914 v -2.164886 -2.164934 h 2.164914 2.164917 V 11.579333 9.4144394 h 2.164917 2.164912 V 7.2495141 5.0845809 h 2.164918 2.164918 v 2.1649332 2.1649253 h -2.164918 -2.164918 v 2.1648936 2.164925 h -2.164912 -2.164917 v 2.164934 2.164886 h 2.164917 2.164912 v 4.329855 4.329819 h 4.329836 4.32983 v -2.164933 -2.164886 h 2.164917 2.164913 v 2.164886 2.164933 h 12.989491 12.989496 v -2.164933 -2.164886 h -2.164917 -2.164918 v -2.16493 -2.164925 h 2.164918 2.164917 v -4.32982 -4.3298186 h -2.164917 -2.164918 v 2.1648936 2.164925 h -4.329825 -4.329836 v 2.164934 2.164886 h 2.164918 2.164918 v 2.164925 2.16493 h -2.164918 -2.164918 v -2.16493 -2.164925 h -2.16491 -2.164917 v 2.164925 2.16493 H 67.59953 65.43462 v -2.16493 -2.164925 h 2.16491 2.164918 V 13.744258 9.4144394 H 67.59953 65.43462 v 2.1648936 2.164925 H 63.269703 61.104784 V 11.579333 9.4144394 h 2.164919 2.164917 V 7.2495141 5.0845809 h 4.329828 4.329827 v 2.1649332 2.1649253 h 2.164918 2.164918 V 7.2495141 5.0845809 h 6.494743 6.494745 v 2.1649332 2.1649253 h 2.164919 2.164917 v 2.1648936 2.164925 h -2.164917 -2.164919 v 8.659675 8.659638 h 2.164919 2.164917 v 4.329859 4.329811 h 4.329835 4.32983 v 4.32982 4.329858 h -2.16491 -2.16492 v 2.164885 2.164934 h 2.16492 2.16491 v -2.164934 -2.164885 h 4.32983 4.32983 v -2.164925 -2.164933 h 2.16493 2.1649 v -2.164887 -2.164933 h 2.16493 2.1649 v 2.164933 2.164887 h -2.1649 -2.16493 v 2.164933 2.164925 h 4.32983 4.32984 v -2.164925 -2.164933 h 2.16491 2.16492 v 4.329858 4.329819 h -2.16492 -2.16491 v 2.164926 2.164893 h 2.16491 2.16492 v 6.494745 6.494744 h -2.16492 -2.16491 v 2.164933 2.164926 h 2.16491 2.16492 v 6.494752 6.494744 h -2.16492 -2.16491 v 2.164886 2.164933 h -2.16491 -2.16493 z M 100.07327,63.537302 v -2.164886 h -2.164924 -2.164911 v 2.164886 2.164933 h 2.164911 2.164924 z M 95.743435,50.547804 v -6.494743 h -4.329836 -4.329828 v -2.164887 -2.164933 h 2.164918 2.16491 V 35.39343 31.063571 h -2.16491 -2.164918 v 2.164926 2.164933 h -2.164917 -2.164918 v -2.164933 -2.164926 h -2.164915 -2.16491 v 2.164926 2.164933 h -2.164918 -2.164918 v -2.164933 -2.164926 h -2.16491 -2.164917 v 2.164926 2.164933 h 2.164917 2.16491 v 4.329811 4.32982 h 2.164918 2.164918 v 4.329858 4.329819 h 2.16491 2.164915 v -2.164934 -2.164885 h 2.164918 2.164917 v 2.164885 2.164934 h 2.164918 2.16491 v 2.164926 2.164893 h 2.164919 2.164917 z M 78.424111,39.723241 V 35.39343 h 2.16491 2.164915 v 4.329811 4.32982 h -2.164915 -2.16491 z M 65.43462,33.228497 v -2.164926 h -2.164917 -2.164919 v 2.164926 2.164933 h 2.164919 2.164917 z M 30.795964,76.526798 v -2.164893 h 2.164917 2.164914 v 2.164893 2.164926 H 32.960881 30.795964 Z M 9.1468021,63.537302 V 61.372416 H 6.9818891 4.8169721 V 50.547804 39.723241 h 6.4947479 6.494749 v 2.164933 2.164887 h -2.164918 -2.164914 v 2.164933 2.164925 H 11.31172 9.1468021 v 2.164885 2.164934 h 2.1649179 2.164917 v 2.164926 2.164893 h 2.164914 2.164918 v 2.164926 2.164933 h -2.164918 -2.164914 v 2.164886 2.164933 H 11.31172 9.1468021 Z M 30.795964,50.547804 v -2.164885 h 2.164917 2.164914 v 2.164885 2.164934 H 32.960881 30.795964 Z M 4.8169721,20.239003 V 5.0845809 H 19.971385 35.125795 V 20.239003 35.39343 H 19.971385 4.8169721 Z m 25.9789919,0 V 9.4144394 H 19.971385 9.1468021 V 20.239003 31.063571 H 19.971385 30.795964 Z m -17.319327,0 v -6.494745 h 6.494748 6.494748 v 6.494745 6.494749 h -6.494748 -6.494748 z m 86.596633,0 V 5.0845809 h 15.15442 15.1544 V 20.239003 35.39343 h -15.1544 -15.15442 z m 25.97899,0 V 9.4144394 H 115.22769 104.4031 V 20.239003 31.063571 h 10.82459 10.82457 z m -17.31933,0 v -6.494745 h 6.49476 6.49473 v 6.494745 6.494749 h -6.49473 -6.49476 z M 52.445124,15.909192 v -2.164934 h 2.164913 2.164917 v 2.164934 2.164886 h -2.164917 -2.164913 z"
       id="path1" /></g></svg>
